<svg width="452" height="128" viewBox="0 0 452 128" fill="none" xmlns="http://www.w3.org/2000/svg">
<g filter="url(#filter0_d)">
<path fill-rule="evenodd" clip-rule="evenodd" d="M143.158 60.7686L155.207 53.74C155.592 53.5154 156.079 53.5727 156.402 53.8804L162.194 59.4098C162.786 59.9746 163.769 59.6287 163.876 58.8176L166.376 39.9323C166.416 39.6264 166.596 39.3563 166.862 39.2004L196.638 21.777L190.968 20.1288C189.769 19.7408 189.316 18.7939 189.649 17.749C189.98 16.7049 191.179 16.094 192.175 16.3493C193.17 16.6032 203.145 19.5373 203.145 19.5373C203.396 19.5998 203.63 19.7117 203.833 19.8663C204.036 20.0209 204.204 20.215 204.327 20.4372C204.451 20.6593 204.526 20.9048 204.549 21.1591C204.573 21.4133 204.543 21.6712 204.463 21.9171C204.463 21.9171 201.665 31.933 201.35 32.9084C201.038 33.8867 199.885 34.5807 198.825 34.308C197.765 34.0407 197.201 33.1529 197.508 31.9312L199.159 26.1L170.867 42.6622C170.597 42.8202 170.417 43.0953 170.379 43.4058L167.405 68.1397C167.303 68.987 166.254 69.3255 165.676 68.6977L155.237 57.3641C154.971 57.0746 154.559 56.9684 154.185 57.0929L143.158 60.7686Z" fill="#AFB42B"/>
<path d="M443.866 55.4316H412.101V81.4346H449V89.3464H402.436V15.9732H448.497V23.9354H412.101V47.5197H443.866V55.4316Z" fill="white"/>
<path d="M356.416 81.4346H391.148V89.3464H346.701V15.9732H356.416V81.4346Z" fill="white"/>
<path d="M318.574 70.197H288.002L281.136 89.3464H271.212L299.078 15.9732H307.498L335.414 89.3464H325.541L318.574 70.197ZM290.909 62.2348H315.718L303.288 27.9165L290.909 62.2348Z" fill="white"/>
<path d="M244.678 76.4961L265.592 15.9734H276.149L249.002 89.3466H240.456L213.359 15.9734H223.866L244.678 76.4961Z" fill="white"/>
<path fill-rule="evenodd" clip-rule="evenodd" d="M192.922 36.2115C199.311 48.9484 197.817 64.6304 188.437 75.9891L192.568 80.1196C194.138 78.8795 196.422 78.9842 197.872 80.4335L206.018 88.5802C208.774 91.3354 208.774 95.8025 206.018 98.5577C203.263 101.313 198.796 101.313 196.041 98.5577L187.894 90.4109C186.445 88.9621 186.34 86.6784 187.579 85.1085L183.449 80.978C169.037 92.8806 147.663 92.0889 134.178 78.603C119.851 64.276 119.851 41.0473 134.178 26.7203C147.351 13.5463 168.052 12.4861 182.437 23.5396L166.895 32.6047C159.515 30.1184 151.035 31.8154 145.155 37.6956C136.889 45.9612 136.889 59.3623 145.155 67.6279C153.421 75.8935 166.822 75.8935 175.087 67.6279C181.46 61.2555 182.919 51.8305 179.466 44.0598L192.922 36.2115Z" fill="white"/>
<path d="M110.938 57.5479H81.7924V77.2015H115.998V89.3464H66.6124V15.9732H115.897V28.2189H81.7924V45.7055H110.938V57.5479Z" fill="white"/>
<path d="M40.6855 69.6298C40.6855 66.8505 39.7127 64.7253 37.7675 63.2539C35.8219 61.7499 32.3204 60.1802 27.2624 58.5454C22.2044 56.878 18.2002 55.2431 15.2498 53.6409C7.20896 49.2593 3.18853 43.3575 3.18853 35.9352C3.18853 32.0769 4.25849 28.6436 6.39838 25.6355C8.57071 22.5946 11.6671 20.2241 15.6875 18.5238C19.7403 16.8235 24.2795 15.9734 29.305 15.9734C34.3629 15.9734 38.8697 16.9053 42.8251 18.769C46.7809 20.6001 49.8447 23.1995 52.0169 26.5674C54.2218 29.9352 55.3244 33.7608 55.3244 38.0442H40.7341C40.7341 34.7744 39.7127 32.2404 37.67 30.442C35.6275 28.6109 32.7581 27.6954 29.0618 27.6954C25.4953 27.6954 22.7232 28.4638 20.7454 30.0006C18.7676 31.5047 17.7787 33.4992 17.7787 35.9842C17.7787 38.3057 18.9298 40.2512 21.2318 41.8207C23.5662 43.3902 26.9868 44.8616 31.4934 46.2349C39.7936 48.7525 45.8407 51.8751 49.634 55.6026C53.4274 59.3301 55.3244 63.9731 55.3244 69.5318C55.3244 75.7117 53.006 80.5672 48.3697 84.0984C43.733 87.5973 37.4916 89.3466 29.6454 89.3466C24.1984 89.3466 19.2378 88.3491 14.7634 86.3548C10.2891 84.3273 6.8685 81.5644 4.50164 78.0658C2.16722 74.5672 1 70.5128 1 65.9023H15.6388C15.6388 73.7825 20.3077 77.7225 29.6454 77.7225C33.1148 77.7225 35.8219 77.0196 37.7675 75.6134C39.7127 74.1749 40.6855 72.1802 40.6855 69.6298Z" fill="white"/>
</g>
<defs>
<filter id="filter0_d" x="0" y="0" width="452" height="127.501" filterUnits="userSpaceOnUse" color-interpolation-filters="sRGB">
<feFlood flood-opacity="0" result="BackgroundImageFix"/>
<feColorMatrix in="SourceAlpha" type="matrix" values="0 0 0 0 0 0 0 0 0 0 0 0 0 0 0 0 0 0 127 0"/>
<feOffset dx="1" dy="1"/>
<feGaussianBlur stdDeviation="1"/>
<feColorMatrix type="matrix" values="0 0 0 0 0 0 0 0 0 0 0 0 0 0 0 0 0 0 0.25 0"/>
<feBlend mode="normal" in2="BackgroundImageFix" result="effect1_dropShadow"/>
<feBlend mode="normal" in="SourceGraphic" in2="effect1_dropShadow" result="shape"/>
</filter>
</defs>
</svg>
