<svg width="494" height="93" viewBox="0 0 494 93" fill="none" xmlns="http://www.w3.org/2000/svg">
<path d="M217.187 51.87V40.3433L207.389 36.8853C206.236 33.4273 205.084 29.9693 203.355 26.5113L207.965 17.29L199.897 9.22133L190.675 13.832C187.794 12.103 184.336 10.374 180.301 9.79767L176.843 0H165.317L161.859 9.79767C158.401 10.9503 154.943 12.103 152.061 13.832L142.84 9.22133L134.195 17.8663L138.805 27.0877C137.076 29.9693 135.924 33.4273 134.771 36.8853L124.973 40.3433V51.87L134.771 55.328C135.924 58.786 137.076 62.244 138.805 65.702L134.195 74.9233L142.263 82.992L151.485 78.3813C154.366 80.1103 157.824 81.8393 161.859 82.4157L165.317 92.2133H176.843L180.301 82.4157C183.759 81.263 187.217 80.1103 190.675 78.3813L199.897 82.992L207.965 74.9233L203.355 65.702C205.084 62.8203 206.813 59.3623 207.389 55.328L217.187 51.87ZM171.08 69.16C158.401 69.16 148.027 58.786 148.027 46.1067C148.027 33.4273 158.401 23.0533 171.08 23.0533C183.759 23.0533 194.133 33.4273 194.133 46.1067C194.133 58.786 183.759 69.16 171.08 69.16Z" fill="#263238"/>
<circle cx="171" cy="46.2134" r="28" fill="white"/>
<mask id="mask0" mask-type="alpha" maskUnits="userSpaceOnUse" x="146" y="21" width="51" height="51">
<circle cx="171.245" cy="46.2716" r="25.0797" fill="white"/>
</mask>
<g mask="url(#mask0)">
<rect x="165.333" y="33.5288" width="12.3373" height="38.0401" fill="#1E88E5"/>
<rect x="181.783" y="41.7539" width="12.3373" height="29.8152" fill="#FFB300"/>
<rect x="148.883" y="49.979" width="12.3373" height="21.5903" fill="#E53935"/>
</g>
<path d="M255.476 83.2134L238.465 35.3505C237.666 33.1448 236.975 31.3068 236.394 29.8363C235.885 28.3659 235.412 27.116 234.976 26.0867C234.613 25.0574 234.285 24.2119 233.995 23.5502C233.704 22.8885 233.449 22.2636 233.231 21.6754C232.432 19.8373 231.596 18.4404 230.723 17.4846C229.924 16.4553 229.088 15.7201 228.215 15.279C227.343 14.7643 226.434 14.4702 225.489 14.3967C224.617 14.3232 223.708 14.2864 222.763 14.2864L222.218 13.8453L222 9.65451L222.109 9.21338C222.618 9.2869 223.345 9.36042 224.29 9.43394C225.308 9.50747 226.362 9.58099 227.452 9.65451C228.543 9.72804 229.597 9.80155 230.614 9.87507C231.632 9.87507 232.395 9.87507 232.904 9.87507H240.973C241.482 9.87507 242.318 9.83831 243.481 9.76479C244.645 9.69127 245.844 9.61775 247.08 9.54423C248.388 9.47071 249.624 9.39718 250.787 9.32366C251.95 9.25014 252.786 9.21338 253.295 9.21338L253.513 9.65451L253.186 13.8453L252.641 14.2864C250.533 14.2864 248.897 14.5437 247.734 15.0584C246.571 15.4995 245.989 16.7862 245.989 18.9183C245.989 20.6093 246.535 22.9988 247.625 26.0867C248.788 29.1011 250.206 32.9243 251.878 37.5562L258.529 55.6426C259.765 58.5835 260.783 61.4141 261.582 64.1344C262.382 66.7812 263.182 68.9869 263.981 70.7514C264.563 69.0604 265.363 66.9282 266.38 64.355C267.398 61.7082 268.488 58.804 269.652 55.6426L276.303 37.5562C277.975 32.9243 279.356 29.1011 280.447 26.0867C281.61 22.9988 282.191 20.6093 282.191 18.9183C282.191 16.7862 281.61 15.4995 280.447 15.0584C279.284 14.5437 277.648 14.2864 275.54 14.2864L274.995 13.8453L274.777 9.65451L274.995 9.21338C275.504 9.2869 276.303 9.36042 277.394 9.43394C278.484 9.50747 279.611 9.58099 280.774 9.65451C281.937 9.72804 283.064 9.80155 284.154 9.87507C285.245 9.87507 286.044 9.87507 286.553 9.87507H292.987C293.496 9.87507 294.223 9.83831 295.168 9.76479C296.185 9.69127 297.239 9.61775 298.33 9.54423C299.42 9.47071 300.474 9.39718 301.492 9.32366C302.51 9.25014 303.273 9.21338 303.782 9.21338L304 9.65451L303.673 13.8453L303.128 14.2864C302.183 14.2864 301.274 14.3232 300.402 14.3967C299.529 14.4702 298.657 14.7643 297.785 15.279C296.985 15.7201 296.149 16.4553 295.277 17.4846C294.477 18.4404 293.641 19.8373 292.769 21.6754C292.623 22.043 292.441 22.4106 292.223 22.7782C292.078 23.1458 291.824 23.734 291.46 24.5427C291.169 25.278 290.733 26.344 290.152 27.741C289.57 29.1379 288.807 31.0494 287.862 33.4757C286.917 35.8284 285.717 38.806 284.263 42.4086C282.882 46.0112 281.21 50.3858 279.247 55.5323C278.23 58.1056 277.176 60.7891 276.085 63.583C274.995 66.3033 273.977 68.9133 273.032 71.4131C272.087 73.8393 271.251 76.0082 270.524 77.9198C269.797 79.8314 269.288 81.1915 268.997 82.0003L256.785 83.2134H255.476Z" fill="#4CAF50"/>
<path d="M332.298 9.21338L350.777 59.2819C351.421 61.12 351.994 62.6639 352.496 63.9138C352.997 65.1637 353.391 66.2298 353.678 67.112C354.036 67.9943 354.322 68.7295 354.537 69.3177C354.824 69.8324 355.074 70.3102 355.289 70.7514C356.149 72.5894 357.008 74.0231 357.868 75.0524C358.799 76.0082 359.694 76.7434 360.554 77.2581C361.485 77.6992 362.416 77.9565 363.347 78.0301C364.278 78.1036 365.209 78.1404 366.14 78.1404L366.678 78.5815L367 82.7722L366.785 83.2134C366.284 83.2134 365.532 83.1766 364.529 83.1031C363.526 83.0296 362.488 82.9561 361.413 82.8825C360.339 82.809 359.3 82.7355 358.298 82.662C357.366 82.5884 356.65 82.5517 356.149 82.5517H348.306C347.805 82.5517 346.981 82.5884 345.835 82.662C344.689 82.7355 343.471 82.809 342.182 82.8825C340.964 82.9561 339.782 83.0296 338.636 83.1031C337.49 83.1766 336.667 83.2134 336.165 83.2134L335.951 82.7722L336.273 78.5815L336.703 78.1404C338.565 78.1404 339.962 77.9198 340.893 77.4787C341.895 76.964 342.397 75.6406 342.397 73.5085C342.397 72.3321 342.182 70.6779 341.752 68.5457C341.394 66.3401 340.499 63.6197 339.066 60.3848L336.81 55.0912H318.008L315.86 60.3848C314.57 63.6197 313.603 66.3768 312.959 68.656C312.314 70.9352 311.992 72.5527 311.992 73.5085C311.992 75.273 312.35 76.4861 313.066 77.1478C313.782 77.8095 315.072 78.1404 316.934 78.1404L317.471 78.5815L317.793 82.7722L317.579 83.2134C317.077 83.2134 316.289 83.1766 315.215 83.1031C314.141 83.0296 312.995 82.9561 311.777 82.8825C310.631 82.809 309.521 82.7355 308.446 82.662C307.372 82.5884 306.584 82.5517 306.083 82.5517H299.744C299.242 82.5517 298.49 82.5884 297.488 82.662C296.485 82.7355 295.446 82.809 294.372 82.8825C293.298 82.9561 292.259 83.0296 291.256 83.1031C290.325 83.1766 289.609 83.2134 289.107 83.2134L289 82.7722L289.215 78.5815L289.752 78.1404C290.683 78.1404 291.614 78.0668 292.545 77.9198C293.477 77.7727 294.408 77.4419 295.339 76.9272C296.27 76.4126 297.165 75.7141 298.025 74.8319C298.956 73.8761 299.887 72.663 300.818 71.1925C301.033 70.7514 301.355 70.0897 301.785 69.2074C302.215 68.2516 302.895 66.5974 303.826 64.2447C304.758 61.892 306.047 58.5467 307.694 54.2089C309.342 49.8711 311.526 44.0996 314.248 36.8945L323.488 12.5219L331.116 9.21338H332.298ZM319.835 47.0405H333.909L327.033 27.5204L319.835 47.0405Z" fill="#4CAF50"/>
<path d="M385.405 21.7689C385.258 20.5097 384.962 19.2875 384.52 18.1023C384.151 16.843 383.561 15.9171 382.75 15.3245C382.159 14.9541 381.422 14.6949 380.537 14.5467C379.651 14.3986 378.434 14.3245 376.885 14.3245L376.332 13.88L376 9.65782L376.221 9.21338C376.885 9.28745 377.77 9.36153 378.877 9.4356C380.057 9.50968 381.237 9.58375 382.418 9.65782C383.672 9.7319 384.852 9.80597 385.958 9.88004C387.065 9.88004 387.95 9.88004 388.614 9.88004H395.142C395.806 9.88004 396.654 9.88004 397.687 9.88004C398.793 9.80597 399.937 9.7319 401.117 9.65782C402.371 9.58375 403.551 9.50968 404.658 9.4356C405.838 9.36153 406.797 9.28745 407.534 9.21338L407.756 9.65782L407.424 13.88L406.981 14.3245C405.137 14.3245 403.772 14.4356 402.887 14.6578C402.076 14.806 401.412 15.0652 400.896 15.4356C399.347 16.4726 398.461 18.5838 398.24 21.7689C398.166 22.5097 398.093 23.2875 398.019 24.1023C398.019 24.843 398.019 25.843 398.019 27.1023C398.019 28.2875 398.019 29.806 398.019 31.6578C398.019 33.5097 398.019 35.843 398.019 38.6578V53.5467C398.019 56.4356 398.019 58.806 398.019 60.6578C398.019 62.4356 398.019 63.9541 398.019 65.2134C398.093 66.3986 398.129 67.4726 398.129 68.4356C398.203 69.3245 398.314 70.3986 398.461 71.6578C398.535 73.1393 399.383 73.88 401.006 73.88H411.296C413.731 73.88 415.649 73.843 417.05 73.7689C418.525 73.6208 419.669 73.3245 420.48 72.88C421.292 72.3615 421.919 71.6578 422.361 70.7689C422.804 69.88 423.209 68.6578 423.578 67.1023L423.91 66.6578H429L427.008 81.88L426.123 82.9912C425.533 82.9171 424.611 82.843 423.357 82.7689C422.103 82.7689 420.775 82.7319 419.374 82.6578C417.972 82.6578 416.571 82.6208 415.169 82.5467C413.841 82.5467 412.809 82.5467 412.071 82.5467H388.614C388.097 82.5467 387.249 82.5467 386.069 82.5467C384.962 82.6208 383.782 82.6949 382.528 82.7689C381.274 82.843 380.057 82.9171 378.877 82.9912C377.697 83.0652 376.811 83.1393 376.221 83.2134L376 82.7689L376.332 78.5467L376.885 78.1023C379.688 78.1023 381.606 77.6949 382.639 76.88C383.229 76.3615 383.782 75.5467 384.299 74.4356C384.889 73.3245 385.258 72.0282 385.405 70.5467C385.479 69.806 385.516 68.806 385.516 67.5467C385.589 66.2134 385.626 64.843 385.626 63.4356C385.7 62.0282 385.737 60.7319 385.737 59.5467C385.737 58.2875 385.737 57.3986 385.737 56.88V38.7689C385.737 34.6949 385.7 31.1393 385.626 28.1023C385.626 24.9912 385.553 22.88 385.405 21.7689Z" fill="#4CAF50"/>
<path d="M470.871 9.88004C471.904 9.88004 473.416 9.88004 475.408 9.88004C477.474 9.80597 479.577 9.7319 481.716 9.65782C483.856 9.58375 485.774 9.54671 487.471 9.54671C489.168 9.47264 490.201 9.4356 490.569 9.4356L491.233 10.5467L490.68 24.88H485.7L485.258 24.4356C485.11 23.0282 484.889 21.9171 484.594 21.1023C484.372 20.2875 483.708 19.6949 482.602 19.3245C481.495 18.9541 479.761 18.7319 477.4 18.6578C475.113 18.5838 471.904 18.5467 467.773 18.5467H461.465L461.354 19.5467C461.28 20.5838 461.207 21.5467 461.133 22.4356C461.133 23.3245 461.096 24.3615 461.022 25.5467C461.022 26.7319 461.022 28.1763 461.022 29.88C461.022 31.5838 461.022 33.7689 461.022 36.4356V40.2134C462.793 40.1393 464.49 40.1393 466.113 40.2134C467.736 40.2134 469.248 40.1763 470.65 40.1023C472.052 40.0282 473.232 39.9171 474.191 39.7689C475.224 39.5467 475.962 39.2134 476.404 38.7689C477.142 38.0282 477.511 36.9912 477.511 35.6578L478.064 35.1023L482.159 34.88L482.602 35.1023C482.454 36.806 482.307 38.2875 482.159 39.5467C482.085 40.806 482.048 42.2504 482.048 43.88C482.048 45.6578 482.085 47.3245 482.159 48.88C482.307 50.3615 482.454 51.9912 482.602 53.7689L482.159 53.9912L477.954 53.7689L477.511 53.4356C477.511 51.5838 477.179 50.2134 476.515 49.3245C475.925 48.5097 474.228 48.0652 471.425 47.9912C468.695 47.843 465.633 47.7689 462.239 47.7689H461.022V56.88C461.022 59.0282 461.022 60.806 461.022 62.2134C461.096 63.6208 461.133 64.843 461.133 65.88C461.207 66.843 461.28 67.7689 461.354 68.6578C461.428 69.5467 461.502 70.5838 461.575 71.7689C461.649 73.1763 462.387 73.88 463.789 73.88H468.769C472.974 73.88 476.257 73.806 478.618 73.6578C481.052 73.5097 482.897 73.1763 484.151 72.6578C485.405 72.0652 486.29 71.2504 486.807 70.2134C487.397 69.1763 487.913 67.7689 488.356 65.9912L488.799 65.5467H494L491.897 81.88L491.012 82.9912C490.643 82.9912 489.721 82.9541 488.245 82.88C486.844 82.88 485.258 82.843 483.487 82.7689C481.716 82.6949 479.946 82.6208 478.175 82.5467C476.404 82.5467 475.003 82.5467 473.97 82.5467H451.616C451.099 82.5467 450.251 82.5837 449.07 82.6578C447.89 82.7319 446.673 82.806 445.418 82.88C444.164 82.9541 442.947 83.0282 441.767 83.1023C440.586 83.1763 439.738 83.2134 439.221 83.2134L439 82.7689L439.332 78.5467L439.885 78.1023C441.066 78.1023 442.172 78.0652 443.205 77.9912C444.238 77.843 445.087 77.5097 445.75 76.9912C446.341 76.4726 446.894 75.806 447.41 74.9912C448.001 74.1763 448.37 72.7319 448.517 70.6578C448.517 70.1393 448.517 69.5467 448.517 68.88C448.591 68.1393 448.628 67.2504 448.628 66.2134C448.702 65.1763 448.738 63.9171 448.738 62.4356C448.738 60.9541 448.738 59.1023 448.738 56.88V38.7689C448.738 36.1763 448.738 33.9912 448.738 32.2134C448.738 30.4356 448.738 28.9171 448.738 27.6578C448.738 26.3986 448.702 25.3245 448.628 24.4356C448.628 23.5467 448.591 22.6578 448.517 21.7689C448.37 19.7689 448.001 18.3245 447.41 17.4356C446.894 16.5467 446.341 15.88 445.75 15.4356C445.087 14.843 444.238 14.5097 443.205 14.4356C442.172 14.3615 441.066 14.3245 439.885 14.3245L439.332 13.88L439 9.65782L439.221 9.21338C439.738 9.21338 440.586 9.25042 441.767 9.32449C442.947 9.39856 444.201 9.47264 445.529 9.54671C446.931 9.62079 448.259 9.69486 449.513 9.76893C450.841 9.84301 451.911 9.88004 452.722 9.88004H470.871Z" fill="#4CAF50"/>
<path d="M12.3474 26.9471C12.3474 28.8445 12.8484 30.4501 13.8505 31.7637C14.8527 33.0773 16.2127 34.2449 17.9305 35.2666C19.6484 36.2154 21.6526 37.1276 23.9432 38.0033C26.2337 38.8791 28.6674 39.7913 31.2442 40.74C33.8211 41.7617 36.2905 42.8564 38.6526 44.024C41.0147 45.1187 43.0905 46.5053 44.88 48.1838C46.7411 49.7893 48.2084 51.7232 49.2821 53.9856C50.4274 56.1749 51 58.8386 51 61.9767C51 65.1877 50.3916 68.1069 49.1747 70.7341C47.9579 73.2883 46.2042 75.5142 43.9137 77.4116C41.6947 79.2361 38.939 80.6591 35.6463 81.6808C32.4253 82.7025 28.8105 83.2134 24.8021 83.2134C20.5074 83.2134 16.2127 82.666 11.9179 81.5714C7.62318 80.4767 3.79369 78.9806 0.429473 77.0832L0 75.6601L2.46947 60.9915H7.30108L7.83792 61.6483C8.26739 66.6838 9.91371 70.2597 12.7769 72.3761C15.7116 74.4925 19.6842 75.5507 24.6948 75.5507C29.6337 75.5507 33.2126 74.6749 35.4316 72.9234C37.6505 71.099 38.76 68.4353 38.76 64.9323C38.76 62.67 38.2947 60.809 37.3642 59.3495C36.4337 57.8899 35.1095 56.6493 33.3916 55.6276C31.7453 54.6059 29.7411 53.6937 27.379 52.8909C25.0169 52.0881 22.4042 51.1394 19.5411 50.0447C16.9642 49.096 14.5663 48.0743 12.3474 46.9797C10.1284 45.812 8.19581 44.4619 6.5495 42.9294C4.97474 41.3238 3.72211 39.4264 2.79158 37.237C1.86105 35.0477 1.39579 32.4205 1.39579 29.3554C1.39579 22.9333 3.43579 17.9708 7.51581 14.4678C11.6674 10.9649 17.9663 9.21338 26.4126 9.21338C30.2779 9.21338 33.8926 9.68774 37.2569 10.6365C40.6211 11.5122 43.4484 12.5704 45.739 13.811L46.1684 15.0152L44.4505 27.4944H39.2968L38.76 26.9471C38.3305 23.882 37.0421 21.5102 34.8947 19.8317C32.7474 18.1532 29.7411 17.314 25.8758 17.314C21.5811 17.314 18.2526 18.1897 15.8905 19.9412C13.5284 21.6927 12.3474 24.028 12.3474 26.9471Z" fill="#263238"/>
<path d="M91.8712 9.88004C92.9041 9.88004 94.4165 9.88004 96.4084 9.88004C98.4742 9.80597 100.577 9.7319 102.716 9.65782C104.856 9.58375 106.774 9.54671 108.471 9.54671C110.168 9.47264 111.201 9.4356 111.569 9.4356L112.233 10.5467L111.68 24.88H106.7L106.258 24.4356C106.11 23.0282 105.889 21.9171 105.594 21.1023C105.372 20.2875 104.708 19.6949 103.602 19.3245C102.495 18.9541 100.761 18.7319 98.4004 18.6578C96.1133 18.5838 92.9041 18.5467 88.7726 18.5467H82.4648L82.3541 19.5467C82.2803 20.5838 82.2066 21.5467 82.1328 22.4356C82.1328 23.3245 82.0959 24.3615 82.0221 25.5467C82.0221 26.7319 82.0221 28.1763 82.0221 29.88C82.0221 31.5838 82.0221 33.7689 82.0221 36.4356V40.2134C83.7927 40.1393 85.4896 40.1393 87.1127 40.2134C88.7357 40.2134 90.2481 40.1763 91.6499 40.1023C93.0516 40.0282 94.2321 39.9171 95.1911 39.7689C96.224 39.5467 96.9618 39.2134 97.4044 38.7689C98.1422 38.0282 98.5111 36.9912 98.5111 35.6578L99.0644 35.1023L103.159 34.88L103.602 35.1023C103.454 36.806 103.307 38.2875 103.159 39.5467C103.085 40.806 103.048 42.2504 103.048 43.88C103.048 45.6578 103.085 47.3245 103.159 48.88C103.307 50.3615 103.454 51.9912 103.602 53.7689L103.159 53.9912L98.9537 53.7689L98.5111 53.4356C98.5111 51.5838 98.1791 50.2134 97.5151 49.3245C96.9249 48.5097 95.228 48.0652 92.4245 47.9912C89.6948 47.843 86.6331 47.7689 83.2394 47.7689H82.0221V56.88C82.0221 59.0282 82.0221 60.806 82.0221 62.2134C82.0959 63.6208 82.1328 64.843 82.1328 65.88C82.2066 66.843 82.2803 67.7689 82.3541 68.6578C82.4279 69.5467 82.5017 70.5838 82.5754 71.7689C82.6492 73.1763 83.387 73.88 84.7887 73.88H89.7686C93.9738 73.88 97.2569 73.806 99.6177 73.6578C102.052 73.5097 103.897 73.1763 105.151 72.6578C106.405 72.0652 107.29 71.2504 107.807 70.2134C108.397 69.1763 108.913 67.7689 109.356 65.9912L109.799 65.5467H115L112.897 81.88L112.012 82.9912C111.643 82.9912 110.721 82.9541 109.245 82.88C107.844 82.88 106.258 82.843 104.487 82.7689C102.716 82.6949 100.946 82.6208 99.175 82.5467C97.4044 82.5467 96.0027 82.5467 94.9698 82.5467H72.6157C72.0992 82.5467 71.2508 82.5837 70.0704 82.6578C68.89 82.7319 67.6727 82.806 66.4185 82.88C65.1643 82.9541 63.947 83.0282 62.7666 83.1023C61.5862 83.1763 60.7378 83.2134 60.2213 83.2134L60 82.7689L60.332 78.5467L60.8853 78.1023C62.0657 78.1023 63.1724 78.0652 64.2052 77.9912C65.2381 77.843 66.0865 77.5097 66.7505 76.9912C67.3407 76.4726 67.894 75.806 68.4104 74.9912C69.0007 74.1763 69.3695 72.7319 69.5171 70.6578C69.5171 70.1393 69.5171 69.5467 69.5171 68.88C69.5909 68.1393 69.6278 67.2504 69.6278 66.2134C69.7015 65.1763 69.7384 63.9171 69.7384 62.4356C69.7384 60.9541 69.7384 59.1023 69.7384 56.88V38.7689C69.7384 36.1763 69.7384 33.9912 69.7384 32.2134C69.7384 30.4356 69.7384 28.9171 69.7384 27.6578C69.7384 26.3986 69.7015 25.3245 69.6278 24.4356C69.6278 23.5467 69.5909 22.6578 69.5171 21.7689C69.3695 19.7689 69.0007 18.3245 68.4104 17.4356C67.894 16.5467 67.3407 15.88 66.7505 15.4356C66.0865 14.843 65.2381 14.5097 64.2052 14.4356C63.1724 14.3615 62.0657 14.3245 60.8853 14.3245L60.332 13.88L60 9.65782L60.2213 9.21338C60.7378 9.21338 61.5862 9.25042 62.7666 9.32449C63.947 9.39856 65.2012 9.47264 66.5292 9.54671C67.9309 9.62079 69.2589 9.69486 70.5131 9.76893C71.841 9.84301 72.9108 9.88004 73.7223 9.88004H91.8712Z" fill="#263238"/>
</svg>
