<svg width="384" height="72" viewBox="0 0 384 72" fill="none" xmlns="http://www.w3.org/2000/svg">
<path d="M169.138 40.5818V31.6052L161.508 28.9122C160.611 26.2192 159.713 23.5262 158.366 20.8332L161.957 13.6519L155.673 7.36831L148.492 10.959C146.248 9.61247 143.555 8.26597 140.413 7.81714L137.72 0.187012H128.744L126.051 7.81714C123.358 8.7148 120.665 9.61247 118.421 10.959L111.239 7.36831L104.507 14.1008L108.097 21.2821C106.751 23.5262 105.853 26.2192 104.956 28.9122L97.3254 31.6052V40.5818L104.956 43.2748C105.853 45.9678 106.751 48.6608 108.097 51.3538L104.507 58.5351L110.79 64.8187L117.972 61.228C120.216 62.5745 122.909 63.921 126.051 64.3699L128.744 72H137.72L140.413 64.3699C143.106 63.4722 145.799 62.5745 148.492 61.228L155.673 64.8187L161.957 58.5351L158.366 51.3538C159.713 49.1096 161.059 46.4166 161.508 43.2748L169.138 40.5818ZM133.232 57.8264C120.948 57.8264 111.499 47.9049 111.499 36.0935C111.499 24.2822 120.948 14.3606 133.232 14.3606C145.516 14.3606 154.965 24.2822 154.965 36.0935C154.965 47.9049 145.516 57.8264 133.232 57.8264Z" fill="#263238"/>
<mask id="mask0" mask-type="alpha" maskUnits="userSpaceOnUse" x="113" y="16" width="40" height="40">
<circle cx="133.36" cy="36.2219" r="19.5313" fill="white"/>
</mask>
<g mask="url(#mask0)">
<rect x="128.757" y="26.2985" width="9.60794" height="29.6245" fill="#1E88E5"/>
<rect x="141.567" y="32.7038" width="9.60794" height="23.2192" fill="#FFB300"/>
<rect x="115.946" y="39.1091" width="9.60794" height="16.8139" fill="#E53935"/>
</g>
<path d="M199.719 65L186.65 27.4858C186.036 25.7571 185.505 24.3164 185.059 23.1639C184.668 22.0114 184.305 21.0318 183.969 20.225C183.69 19.4183 183.439 18.7556 183.215 18.237C182.992 17.7183 182.797 17.2285 182.629 16.7675C182.015 15.3269 181.372 14.232 180.702 13.4829C180.088 12.6761 179.445 12.0999 178.775 11.7541C178.105 11.3507 177.407 11.1202 176.681 11.0626C176.011 11.005 175.312 10.9762 174.586 10.9762L174.168 10.6304L174 7.34575L174.084 7C174.475 7.05762 175.033 7.11525 175.759 7.17287C176.541 7.2305 177.351 7.28813 178.189 7.34575C179.027 7.40338 179.836 7.461 180.618 7.51863C181.4 7.51863 181.987 7.51863 182.378 7.51863H188.577C188.968 7.51863 189.61 7.48981 190.504 7.43219C191.398 7.37457 192.319 7.31694 193.269 7.25932C194.274 7.20169 195.223 7.14406 196.117 7.08644C197.011 7.02881 197.653 7 198.044 7L198.211 7.34575L197.96 10.6304L197.541 10.9762C195.922 10.9762 194.665 11.1778 193.771 11.5812C192.878 11.927 192.431 12.9354 192.431 14.6066C192.431 15.9319 192.85 17.8048 193.688 20.225C194.581 22.5877 195.67 25.5842 196.955 29.2146L202.065 43.3905C203.015 45.6955 203.797 47.9141 204.411 50.0462C205.025 52.1207 205.64 53.8495 206.254 55.2325C206.701 53.9071 207.315 52.236 208.097 50.2191C208.879 48.1446 209.717 45.8684 210.61 43.3905L215.721 29.2146C217.005 25.5842 218.066 22.5877 218.904 20.225C219.798 17.8048 220.245 15.9319 220.245 14.6066C220.245 12.9354 219.798 11.927 218.904 11.5812C218.011 11.1778 216.754 10.9762 215.134 10.9762L214.715 10.6304L214.548 7.34575L214.715 7C215.106 7.05762 215.721 7.11525 216.559 7.17287C217.396 7.2305 218.262 7.28813 219.156 7.34575C220.049 7.40338 220.915 7.461 221.753 7.51863C222.59 7.51863 223.205 7.51863 223.596 7.51863H228.539C228.93 7.51863 229.488 7.48981 230.214 7.43219C230.996 7.37457 231.806 7.31694 232.644 7.25932C233.481 7.20169 234.291 7.14406 235.073 7.08644C235.855 7.02881 236.441 7 236.832 7L237 7.34575L236.749 10.6304L236.33 10.9762C235.604 10.9762 234.906 11.005 234.235 11.0626C233.565 11.1202 232.895 11.3507 232.225 11.7541C231.61 12.0999 230.968 12.6761 230.298 13.4829C229.684 14.232 229.041 15.3269 228.371 16.7675C228.259 17.0556 228.12 17.3438 227.952 17.6319C227.84 17.92 227.645 18.381 227.366 19.0149C227.142 19.5912 226.807 20.4267 226.36 21.5216C225.914 22.6165 225.327 24.1148 224.601 26.0164C223.875 27.8604 222.953 30.1942 221.836 33.0179C220.775 35.8415 219.491 39.2702 217.983 43.304C217.201 45.3209 216.391 47.4242 215.553 49.614C214.715 51.7462 213.934 53.7919 213.207 55.7511C212.481 57.6528 211.839 59.3527 211.281 60.851C210.722 62.3492 210.331 63.4153 210.108 64.0492L200.725 65H199.719Z" fill="#43A047"/>
<path d="M258.416 7L273.105 46.2429C273.617 47.6836 274.073 48.8937 274.471 49.8733C274.87 50.853 275.183 51.6885 275.41 52.38C275.695 53.0715 275.923 53.6478 276.094 54.1088C276.321 54.5122 276.521 54.8867 276.691 55.2325C277.375 56.6731 278.058 57.7968 278.741 58.6036C279.481 59.3527 280.193 59.929 280.876 60.3323C281.616 60.6781 282.356 60.8798 283.096 60.9374C283.837 60.995 284.577 61.0238 285.317 61.0238L285.744 61.3696L286 64.6542L285.829 65C285.431 65 284.833 64.9712 284.036 64.9136C283.239 64.8559 282.413 64.7983 281.559 64.7407C280.705 64.6831 279.88 64.6254 279.083 64.5678C278.342 64.5102 277.773 64.4814 277.375 64.4814H271.141C270.742 64.4814 270.087 64.5102 269.176 64.5678C268.265 64.6254 267.298 64.6831 266.273 64.7407C265.305 64.7983 264.366 64.8559 263.455 64.9136C262.544 64.9712 261.889 65 261.49 65L261.32 64.6542L261.576 61.3696L261.917 61.0238C263.398 61.0238 264.508 60.851 265.248 60.5052C266.045 60.1018 266.444 59.0646 266.444 57.3934C266.444 56.4714 266.273 55.1749 265.931 53.5037C265.647 51.775 264.935 49.6428 263.796 47.1073L262.003 42.9583H247.058L245.35 47.1073C244.325 49.6428 243.557 51.8038 243.044 53.5902C242.532 55.3766 242.276 56.6443 242.276 57.3934C242.276 58.7765 242.56 59.7273 243.13 60.2459C243.699 60.7645 244.724 61.0238 246.204 61.0238L246.631 61.3696L246.887 64.6542L246.716 65C246.318 65 245.692 64.9712 244.838 64.9136C243.984 64.8559 243.073 64.7983 242.105 64.7407C241.194 64.6831 240.311 64.6254 239.457 64.5678C238.603 64.5102 237.977 64.4814 237.579 64.4814H232.54C232.141 64.4814 231.544 64.5102 230.747 64.5678C229.95 64.6254 229.124 64.6831 228.27 64.7407C227.416 64.7983 226.59 64.8559 225.793 64.9136C225.053 64.9712 224.484 65 224.085 65L224 64.6542L224.171 61.3696L224.598 61.0238C225.338 61.0238 226.078 60.9662 226.818 60.851C227.558 60.7357 228.298 60.4764 229.039 60.073C229.779 59.6696 230.49 59.1222 231.174 58.4307C231.914 57.6816 232.654 56.7307 233.394 55.5782C233.565 55.2325 233.821 54.7139 234.163 54.0224C234.504 53.2732 235.045 51.9767 235.785 50.1326C236.525 48.2886 237.55 45.6667 238.86 42.2668C240.169 38.8669 241.905 34.3433 244.069 28.696L251.413 9.59314L257.477 7H258.416ZM248.51 36.6483H259.697L254.231 21.3487L248.51 36.6483Z" fill="#43A047"/>
<path d="M300.276 16.8408C300.161 15.8539 299.933 14.8959 299.591 13.967C299.306 12.98 298.849 12.2543 298.221 11.7898C297.765 11.4995 297.194 11.2963 296.509 11.1802C295.825 11.0641 294.883 11.006 293.685 11.006L293.257 10.6577L293 7.34835L293.171 7C293.685 7.05806 294.37 7.11611 295.225 7.17417C296.138 7.23223 297.051 7.29029 297.965 7.34835C298.935 7.40641 299.848 7.46446 300.704 7.52252C301.56 7.52252 302.244 7.52252 302.758 7.52252H307.808C308.322 7.52252 308.978 7.52252 309.777 7.52252C310.633 7.46446 311.517 7.40641 312.43 7.34835C313.4 7.29029 314.313 7.23223 315.169 7.17417C316.082 7.11611 316.824 7.05806 317.395 7L317.566 7.34835L317.309 10.6577L316.967 11.006C315.54 11.006 314.484 11.0931 313.8 11.2673C313.172 11.3834 312.658 11.5866 312.259 11.8769C311.061 12.6897 310.376 14.3443 310.205 16.8408C310.148 17.4214 310.09 18.031 310.033 18.6697C310.033 19.2503 310.033 20.034 310.033 21.021C310.033 21.95 310.033 23.1401 310.033 24.5916C310.033 26.043 310.033 27.8719 310.033 30.0781V41.7478C310.033 44.012 310.033 45.8699 310.033 47.3213C310.033 48.7147 310.033 49.9049 310.033 50.8919C310.09 51.8208 310.119 52.6627 310.119 53.4174C310.176 54.1141 310.262 54.956 310.376 55.9429C310.433 57.1041 311.089 57.6847 312.344 57.6847H320.305C322.188 57.6847 323.672 57.6557 324.756 57.5976C325.897 57.4815 326.781 57.2492 327.409 56.9009C328.037 56.4945 328.522 55.9429 328.864 55.2462C329.207 54.5496 329.521 53.5916 329.806 52.3724L330.063 52.024H334L332.459 63.955L331.775 64.8258C331.318 64.7678 330.605 64.7097 329.635 64.6517C328.665 64.6517 327.637 64.6226 326.553 64.5646C325.469 64.5646 324.385 64.5355 323.301 64.4775C322.273 64.4775 321.475 64.4775 320.904 64.4775H302.758C302.358 64.4775 301.702 64.4775 300.789 64.4775C299.933 64.5355 299.02 64.5936 298.05 64.6517C297.08 64.7097 296.138 64.7678 295.225 64.8258C294.312 64.8839 293.628 64.9419 293.171 65L293 64.6517L293.257 61.3423L293.685 60.994C295.853 60.994 297.337 60.6747 298.136 60.036C298.592 59.6296 299.02 58.991 299.42 58.1201C299.876 57.2493 300.161 56.2332 300.276 55.0721C300.333 54.4915 300.361 53.7077 300.361 52.7207C300.418 51.6757 300.447 50.6016 300.447 49.4985C300.504 48.3954 300.532 47.3794 300.532 46.4505C300.532 45.4635 300.532 44.7668 300.532 44.3604V30.1652C300.532 26.972 300.504 24.1852 300.447 21.8048C300.447 19.3664 300.39 17.7117 300.276 16.8408Z" fill="#43A047"/>
<path d="M366.338 7.52252C367.127 7.52252 368.282 7.52252 369.803 7.52252C371.38 7.46446 372.986 7.40641 374.62 7.34835C376.254 7.29029 377.718 7.26126 379.014 7.26126C380.31 7.2032 381.099 7.17417 381.38 7.17417L381.887 8.04505L381.465 19.2793H377.662L377.324 18.9309C377.211 17.8278 377.042 16.957 376.817 16.3183C376.648 15.6797 376.141 15.2152 375.296 14.9249C374.451 14.6346 373.127 14.4605 371.324 14.4024C369.577 14.3443 367.127 14.3153 363.972 14.3153H359.155L359.07 15.0991C359.014 15.9119 358.958 16.6667 358.901 17.3634C358.901 18.0601 358.873 18.8729 358.817 19.8018C358.817 20.7307 358.817 21.8629 358.817 23.1982C358.817 24.5335 358.817 26.2462 358.817 28.3363V31.2973C360.169 31.2392 361.465 31.2392 362.704 31.2973C363.944 31.2973 365.099 31.2683 366.169 31.2102C367.239 31.1522 368.141 31.0651 368.873 30.9489C369.662 30.7748 370.225 30.5135 370.563 30.1652C371.127 29.5846 371.408 28.7718 371.408 27.7267L371.831 27.2913L374.958 27.1171L375.296 27.2913C375.183 28.6266 375.07 29.7878 374.958 30.7748C374.901 31.7618 374.873 32.8939 374.873 34.1712C374.873 35.5646 374.901 36.8709 374.958 38.0901C375.07 39.2513 375.183 40.5285 375.296 41.9219L374.958 42.0961L371.746 41.9219L371.408 41.6607C371.408 40.2092 371.155 39.1351 370.648 38.4384C370.197 37.7998 368.901 37.4515 366.761 37.3934C364.676 37.2773 362.338 37.2192 359.746 37.2192H358.817V44.3604C358.817 46.044 358.817 47.4374 358.817 48.5405C358.873 49.6436 358.901 50.6016 358.901 51.4144C358.958 52.1692 359.014 52.8949 359.07 53.5916C359.127 54.2883 359.183 55.1011 359.239 56.03C359.296 57.1331 359.859 57.6847 360.93 57.6847H364.732C367.944 57.6847 370.451 57.6266 372.254 57.5105C374.113 57.3944 375.521 57.1331 376.479 56.7267C377.437 56.2623 378.113 55.6236 378.507 54.8108C378.958 53.998 379.352 52.8949 379.69 51.5015L380.028 51.1532H384L382.394 63.955L381.718 64.8258C381.437 64.8258 380.732 64.7968 379.606 64.7387C378.535 64.7387 377.324 64.7097 375.972 64.6517C374.62 64.5936 373.268 64.5355 371.915 64.4775C370.563 64.4775 369.493 64.4775 368.704 64.4775H351.634C351.239 64.4775 350.592 64.5065 349.69 64.5646C348.789 64.6226 347.859 64.6807 346.901 64.7387C345.944 64.7968 345.014 64.8549 344.113 64.9129C343.211 64.971 342.563 65 342.169 65L342 64.6517L342.254 61.3423L342.676 60.994C343.577 60.994 344.423 60.965 345.211 60.9069C346 60.7908 346.648 60.5295 347.155 60.1231C347.606 59.7167 348.028 59.1942 348.423 58.5556C348.873 57.9169 349.155 56.7848 349.268 55.1592C349.268 54.7528 349.268 54.2883 349.268 53.7658C349.324 53.1852 349.352 52.4885 349.352 51.6757C349.408 50.8629 349.437 49.8759 349.437 48.7147C349.437 47.5536 349.437 46.1021 349.437 44.3604V30.1652C349.437 28.1331 349.437 26.4204 349.437 25.027C349.437 23.6336 349.437 22.4434 349.437 21.4565C349.437 20.4695 349.408 19.6276 349.352 18.9309C349.352 18.2342 349.324 17.5375 349.268 16.8408C349.155 15.2733 348.873 14.1411 348.423 13.4444C348.028 12.7478 347.606 12.2252 347.155 11.8769C346.648 11.4124 346 11.1511 345.211 11.0931C344.423 11.035 343.577 11.006 342.676 11.006L342.254 10.6577L342 7.34835L342.169 7C342.563 7 343.211 7.02903 344.113 7.08709C345.014 7.14514 345.972 7.2032 346.986 7.26126C348.056 7.31932 349.07 7.37738 350.028 7.43543C351.042 7.49349 351.859 7.52252 352.479 7.52252H366.338Z" fill="#43A047"/>
<path d="M9.68423 20.8994C9.68423 22.3866 10.0772 23.645 10.8632 24.6746C11.6491 25.7041 12.7158 26.6193 14.0632 27.4201C15.4105 28.1637 16.9825 28.8787 18.779 29.5651C20.5754 30.2515 22.4842 30.9665 24.5053 31.7101C26.5263 32.5109 28.4632 33.3688 30.3158 34.284C32.1684 35.142 33.7965 36.2288 35.2 37.5444C36.6597 38.8028 37.8105 40.3185 38.6526 42.0917C39.5509 43.8077 40 45.8955 40 48.355C40 50.8718 39.5228 53.1598 38.5684 55.2189C37.614 57.2209 36.2386 58.9655 34.4421 60.4527C32.7018 61.8826 30.5404 62.998 27.9579 63.7988C25.4316 64.5996 22.5965 65 19.4526 65C16.0842 65 12.7158 64.571 9.34739 63.713C5.97897 62.855 2.97544 61.6824 0.336842 60.1953L0 59.0799L1.93684 47.5828H5.72633L6.14739 48.0976C6.48423 52.0444 7.77546 54.8471 10.0211 56.5059C12.3228 58.1647 15.4386 58.9941 19.3684 58.9941C23.2421 58.9941 26.0491 58.3077 27.7895 56.9349C29.5298 55.5049 30.4 53.4172 30.4 50.6716C30.4 48.8984 30.0351 47.4398 29.3053 46.2959C28.5754 45.1519 27.5368 44.1795 26.1895 43.3787C24.8983 42.5779 23.3263 41.8629 21.4737 41.2337C19.6211 40.6045 17.5719 39.8609 15.3263 39.003C13.3053 38.2594 11.4246 37.4586 9.68423 36.6006C7.94388 35.6854 6.42809 34.6272 5.13686 33.426C3.90175 32.1677 2.9193 30.6805 2.18947 28.9645C1.45965 27.2485 1.09474 25.1894 1.09474 22.787C1.09474 17.7535 2.69474 13.8639 5.89476 11.1183C9.15089 8.37278 14.0912 7 20.7158 7C23.7474 7 26.5825 7.3718 29.2211 8.11539C31.8597 8.80177 34.0772 9.63116 35.8737 10.6036L36.2105 11.5473L34.8632 21.3284H30.8211L30.4 20.8994C30.0632 18.497 29.0526 16.6381 27.3684 15.3225C25.6842 14.0069 23.3263 13.3491 20.2947 13.3491C16.9263 13.3491 14.3158 14.0355 12.4632 15.4083C10.6105 16.7811 9.68423 18.6114 9.68423 20.8994Z" fill="#263238"/>
<path d="M72.338 7.52252C73.1268 7.52252 74.2817 7.52252 75.8028 7.52252C77.3803 7.46446 78.9859 7.40641 80.6197 7.34835C82.2535 7.29029 83.7183 7.26126 85.0141 7.26126C86.3099 7.2032 87.0986 7.17417 87.3803 7.17417L87.8873 8.04505L87.4648 19.2793H83.662L83.3239 18.9309C83.2113 17.8278 83.0422 16.957 82.8169 16.3183C82.6479 15.6797 82.1408 15.2152 81.2958 14.9249C80.4507 14.6346 79.1268 14.4605 77.3239 14.4024C75.5775 14.3443 73.1268 14.3153 69.9718 14.3153H65.1549L65.0704 15.0991C65.0141 15.9119 64.9577 16.6667 64.9014 17.3634C64.9014 18.0601 64.8732 18.8729 64.8169 19.8018C64.8169 20.7307 64.8169 21.8629 64.8169 23.1982C64.8169 24.5335 64.8169 26.2462 64.8169 28.3363V31.2973C66.169 31.2392 67.4648 31.2392 68.7042 31.2973C69.9437 31.2973 71.0986 31.2683 72.169 31.2102C73.2394 31.1522 74.1408 31.0651 74.8732 30.9489C75.662 30.7748 76.2253 30.5135 76.5634 30.1652C77.1268 29.5846 77.4084 28.7718 77.4084 27.7267L77.831 27.2913L80.9577 27.1171L81.2958 27.2913C81.1831 28.6266 81.0704 29.7878 80.9577 30.7748C80.9014 31.7618 80.8732 32.8939 80.8732 34.1712C80.8732 35.5646 80.9014 36.8709 80.9577 38.0901C81.0704 39.2513 81.1831 40.5285 81.2958 41.9219L80.9577 42.0961L77.7465 41.9219L77.4084 41.6607C77.4084 40.2092 77.1549 39.1351 76.6479 38.4384C76.1972 37.7998 74.9014 37.4515 72.7606 37.3934C70.676 37.2773 68.338 37.2192 65.7465 37.2192H64.8169V44.3604C64.8169 46.044 64.8169 47.4374 64.8169 48.5405C64.8732 49.6436 64.9014 50.6016 64.9014 51.4144C64.9577 52.1692 65.0141 52.8949 65.0704 53.5916C65.1268 54.2883 65.1831 55.1011 65.2394 56.03C65.2958 57.1331 65.8591 57.6847 66.9296 57.6847H70.7324C73.9437 57.6847 76.4507 57.6266 78.2535 57.5105C80.1127 57.3944 81.5211 57.1331 82.4789 56.7267C83.4366 56.2623 84.1127 55.6236 84.507 54.8108C84.9577 53.998 85.3521 52.8949 85.6901 51.5015L86.0282 51.1532H90L88.3944 63.955L87.7183 64.8258C87.4366 64.8258 86.7324 64.7968 85.6056 64.7387C84.5352 64.7387 83.3239 64.7097 81.9718 64.6517C80.6197 64.5936 79.2676 64.5355 77.9155 64.4775C76.5634 64.4775 75.493 64.4775 74.7042 64.4775H57.6338C57.2394 64.4775 56.5915 64.5065 55.6901 64.5646C54.7887 64.6226 53.8591 64.6807 52.9014 64.7387C51.9437 64.7968 51.0141 64.8549 50.1127 64.9129C49.2113 64.971 48.5634 65 48.169 65L48 64.6517L48.2535 61.3423L48.6761 60.994C49.5775 60.994 50.4225 60.965 51.2113 60.9069C52 60.7908 52.6479 60.5295 53.1549 60.1231C53.6056 59.7167 54.0282 59.1942 54.4225 58.5556C54.8732 57.9169 55.1549 56.7848 55.2676 55.1592C55.2676 54.7528 55.2676 54.2883 55.2676 53.7658C55.3239 53.1852 55.3521 52.4885 55.3521 51.6757C55.4084 50.8629 55.4366 49.8759 55.4366 48.7147C55.4366 47.5536 55.4366 46.1021 55.4366 44.3604V30.1652C55.4366 28.1331 55.4366 26.4204 55.4366 25.027C55.4366 23.6336 55.4366 22.4434 55.4366 21.4565C55.4366 20.4695 55.4084 19.6276 55.3521 18.9309C55.3521 18.2342 55.3239 17.5375 55.2676 16.8408C55.1549 15.2733 54.8732 14.1411 54.4225 13.4444C54.0282 12.7478 53.6056 12.2252 53.1549 11.8769C52.6479 11.4124 52 11.1511 51.2113 11.0931C50.4225 11.035 49.5775 11.006 48.6761 11.006L48.2535 10.6577L48 7.34835L48.169 7C48.5634 7 49.2113 7.02903 50.1127 7.08709C51.0141 7.14514 51.9718 7.2032 52.9859 7.26126C54.0563 7.31932 55.0704 7.37738 56.0282 7.43543C57.0422 7.49349 57.8591 7.52252 58.4789 7.52252H72.338Z" fill="#263238"/>
</svg>
