<svg width="48" height="48" viewBox="0 0 48 48" fill="none" xmlns="http://www.w3.org/2000/svg">
<path d="M23.9934 15.9965C19.5865 15.9965 15.9902 19.593 15.9902 23.9999C15.9902 28.4069 19.5865 32.0033 23.9934 32.0033C28.4003 32.0033 31.9967 28.4069 31.9967 23.9999C31.9967 19.593 28.4003 15.9965 23.9934 15.9965ZM47.9972 23.9999C47.9972 20.6857 48.0272 17.4015 47.8411 14.0932C47.6549 10.2506 46.7784 6.84035 43.9685 4.03045C41.1527 1.21455 37.7484 0.343963 33.9059 0.157838C30.5917 -0.0282879 27.3076 0.00173246 23.9994 0.00173246C20.6852 0.00173246 17.4011 -0.0282879 14.0929 0.157838C10.2504 0.343963 6.84015 1.22055 4.03031 4.03045C1.21446 6.84635 0.343888 10.2506 0.157766 14.0932C-0.028356 17.4075 0.00166377 20.6917 0.00166377 23.9999C0.00166377 27.3082 -0.028356 30.5984 0.157766 33.9066C0.343888 37.7492 1.22046 41.1595 4.03031 43.9694C6.84616 46.7853 10.2504 47.6559 14.0929 47.842C17.4071 48.0281 20.6912 47.9981 23.9994 47.9981C27.3136 47.9981 30.5977 48.0281 33.9059 47.842C37.7484 47.6559 41.1587 46.7793 43.9685 43.9694C46.7844 41.1535 47.6549 37.7492 47.8411 33.9066C48.0332 30.5984 47.9972 27.3142 47.9972 23.9999ZM23.9934 36.3142C17.1789 36.3142 11.6793 30.8145 11.6793 23.9999C11.6793 17.1853 17.1789 11.6856 23.9934 11.6856C30.8079 11.6856 36.3075 17.1853 36.3075 23.9999C36.3075 30.8145 30.8079 36.3142 23.9934 36.3142ZM36.8118 14.0572C35.2208 14.0572 33.9359 12.7724 33.9359 11.1813C33.9359 9.5902 35.2208 8.30534 36.8118 8.30534C38.4029 8.30534 39.6877 9.5902 39.6877 11.1813C39.6882 11.5591 39.6141 11.9333 39.4698 12.2824C39.3254 12.6316 39.1136 12.9488 38.8464 13.2159C38.5793 13.4831 38.2621 13.6949 37.9129 13.8393C37.5638 13.9836 37.1896 14.0577 36.8118 14.0572Z" fill="white"/>
</svg>
