<svg width="48" height="48" viewBox="0 0 48 48" fill="none" xmlns="http://www.w3.org/2000/svg">
<path d="M46.0796 -5.34058e-05H1.91963C0.857633 -5.34058e-05 -0.000366211 0.857946 -0.000366211 1.91995V46.0799C-0.000366211 47.1419 0.857633 47.9999 1.91963 47.9999H46.0796C47.1416 47.9999 47.9996 47.1419 47.9996 46.0799V1.91995C47.9996 0.857946 47.1416 -5.34058e-05 46.0796 -5.34058e-05ZM14.2376 40.9019H7.11563V17.9939H14.2376V40.9019ZM10.6796 14.8619C9.86319 14.8619 9.06508 14.6198 8.38623 14.1662C7.70739 13.7127 7.17829 13.0679 6.86585 12.3137C6.55342 11.5594 6.47167 10.7294 6.63095 9.92861C6.79023 9.12785 7.18338 8.39231 7.76069 7.815C8.338 7.23769 9.07354 6.84454 9.87429 6.68526C10.675 6.52598 11.505 6.60773 12.2593 6.92017C13.0136 7.2326 13.6583 7.7617 14.1119 8.44055C14.5655 9.11939 14.8076 9.9175 14.8076 10.7339C14.8016 13.0139 12.9536 14.8619 10.6796 14.8619ZM40.9016 40.9019H33.7856V29.7599C33.7856 27.1019 33.7376 23.6879 30.0836 23.6879C26.3816 23.6879 25.8116 26.5799 25.8116 29.5679V40.9019H18.7016V17.9939H25.5296V21.1259H25.6256C26.5736 19.3259 28.8956 17.4239 32.3636 17.4239C39.5756 17.4239 40.9016 22.1699 40.9016 28.3379V40.9019Z" fill="white"/>
</svg>
