<svg width="60" height="48" viewBox="0 0 60 48" fill="none" xmlns="http://www.w3.org/2000/svg">
<path d="M60 5.70174C57.7935 6.63902 55.3923 7.31358 52.9191 7.5763C55.4869 6.07407 57.4098 3.7008 58.3271 0.90175C55.9175 2.31327 53.2778 3.30305 50.5251 3.82719C49.3746 2.61602 47.9832 1.65114 46.4374 0.99269C44.8917 0.334236 43.2248 -0.00368737 41.5406 -2.39355e-05C34.7266 -2.39355e-05 29.2465 5.43902 29.2465 12.1136C29.2465 13.0508 29.3618 13.9881 29.5493 14.8899C19.3462 14.3645 10.2464 9.56446 4.19661 2.21536C3.09428 4.06943 2.51662 6.18051 2.52373 8.32896C2.52373 12.5325 4.69414 16.239 8.00384 18.4189C6.05339 18.3432 4.1486 17.8153 2.44442 16.8781V17.0272C2.44442 22.9136 6.66987 27.7917 12.3014 28.9135C11.244 29.184 10.1563 29.3224 9.06381 29.3254C8.26342 29.3254 7.5063 29.2473 6.74197 29.1408C8.29948 33.9408 12.835 37.4271 18.2358 37.5408C14.0103 40.7999 8.7177 42.7171 2.97079 42.7171C1.93967 42.7171 0.987861 42.6816 0 42.568C5.45126 46.0117 11.9192 47.9999 18.8847 47.9999C41.4974 47.9999 53.8709 29.5526 53.8709 13.5408C53.8709 13.0153 53.8709 12.4899 53.8348 11.9645C56.2288 10.239 58.3271 8.10174 60 5.70174Z" fill="white"/>
</svg>
